<?xml version="1.0" encoding="UTF-8"?>
<svg version="1.1" xmlns="http://www.w3.org/2000/svg" width="500" height="500">
<path d="M0 0 C165 0 330 0 500 0 C500 165 500 330 500 500 C335 500 170 500 0 500 C0 335 0 170 0 0 Z " fill="#000000" transform="translate(0,0)"/>
<path d="M0 0 C2.26861495 0.95919443 4.27366179 2.13783328 6.3605957 3.44775391 C9.79198279 5.59454077 13.28024194 7.56921705 16.8449707 9.48291016 C23.20238088 12.93120535 29.34242592 16.69651201 35.4855957 20.51025391 C36.62797143 21.21691116 37.77046941 21.92337084 38.91308594 22.62963867 C42.21054244 24.66923093 45.50447803 26.71446797 48.7980957 28.76025391 C49.70140625 29.32019043 50.6047168 29.88012695 51.53540039 30.45703125 C53.81181804 31.86844614 56.0867684 33.28217059 58.3605957 34.69775391 C59.01439209 35.10413086 59.66818848 35.51050781 60.34179688 35.92919922 C64.67876773 38.64092594 64.67876773 38.64092594 65.7980957 39.76025391 C65.89190873 41.6014342 65.91553524 43.44623032 65.91162109 45.28979492 C65.91154556 46.47094376 65.91147003 47.65209259 65.91139221 48.86903381 C65.90623093 50.15442551 65.90106964 51.4398172 65.89575195 52.76416016 C65.89362953 54.72638771 65.89362953 54.72638771 65.89146423 56.72825623 C65.8876398 60.2118825 65.87781017 63.6954673 65.86676025 67.17907715 C65.85654453 70.73152099 65.85196627 74.2839715 65.84692383 77.83642578 C65.83618782 84.81105223 65.8191123 91.78565108 65.7980957 98.76025391 C62.51752737 97.47064358 59.45074029 96.10256217 56.3840332 94.36181641 C55.5494458 93.88808594 54.7148584 93.41435547 53.85498047 92.92626953 C52.9699585 92.41773438 52.08493652 91.90919922 51.1730957 91.38525391 C49.79432251 90.59538086 49.79432251 90.59538086 48.38769531 89.78955078 C40.39838691 85.17615102 32.57282532 80.32493193 24.80200195 75.35400391 C24.11251465 74.91701172 23.42302734 74.48001953 22.71264648 74.02978516 C20.7980957 72.76025391 20.7980957 72.76025391 19.14526367 71.45947266 C17.49262143 70.11297926 17.49262143 70.11297926 14.7980957 68.76025391 C9.44402639 69.56482716 5.01291634 72.96754442 0.5480957 75.88525391 C-1.12156661 76.95698638 -2.79219761 78.0272107 -4.46362305 79.09619141 C-5.37031738 79.67723633 -6.27701172 80.25828125 -7.21118164 80.85693359 C-12.28276263 84.08452914 -17.38706324 87.25869004 -22.50085449 90.41888428 C-23.67591674 91.14606944 -24.84983044 91.87511385 -26.02258301 92.60601807 C-27.6747711 93.63563319 -29.33083573 94.65901984 -30.98706055 95.68212891 C-31.94491455 96.27606445 -32.90276855 96.87 -33.88964844 97.48193359 C-36.2019043 98.76025391 -36.2019043 98.76025391 -38.2019043 98.76025391 C-37.8719043 112.62025391 -37.5419043 126.48025391 -37.2019043 140.76025391 C-32.4375293 137.82119141 -32.4375293 137.82119141 -27.5769043 134.82275391 C-26.01915283 133.865625 -26.01915283 133.865625 -24.42993164 132.88916016 C-20.18820936 130.27404548 -15.97428641 127.64391759 -11.8659668 124.82275391 C-11.23770996 124.39599365 -10.60945313 123.9692334 -9.9621582 123.52954102 C-8.30339438 122.39233303 -6.65840092 121.23511366 -5.0144043 120.07666016 C-2.2019043 118.76025391 -2.2019043 118.76025391 0.2590332 119.32666016 C1.51586914 120.03628906 1.51586914 120.03628906 2.7980957 120.76025391 C4.33336914 121.51435547 4.33336914 121.51435547 5.8996582 122.28369141 C14.67100947 126.89302677 23.03386753 131.96962456 31.3762207 137.31103516 C37.82380166 141.43303867 44.34181632 145.43985773 50.8605957 149.44775391 C51.44161041 149.80562988 52.02262512 150.16350586 52.62124634 150.53222656 C58.60712176 154.32761758 58.60712176 154.32761758 64.7980957 157.76025391 C63.49013715 161.68412956 62.0606989 162.0337475 58.48950195 164.02587891 C56.80026611 164.97829468 56.80026611 164.97829468 55.0769043 165.94995117 C53.83815242 166.6367506 52.59938241 167.3235173 51.3605957 168.01025391 C50.08478299 168.72657979 48.80956227 169.44396099 47.53491211 170.16235352 C44.9074624 171.64268779 42.27798444 173.11932126 39.6472168 174.59375 C33.96065305 177.78719935 28.31718846 181.05500716 22.6730957 184.32275391 C20.53124519 185.55986565 18.38931794 186.79684455 16.24731445 188.03369141 C14.09756251 189.27585752 11.94782304 190.51804522 9.7980957 191.76025391 C5.36102107 194.3234912 0.92340905 196.88579585 -3.5144043 199.44775391 C-4.47813965 200.00470947 -5.441875 200.56166504 -6.43481445 201.13549805 C-7.89153564 201.97649048 -7.89153564 201.97649048 -9.37768555 202.83447266 C-10.39403076 203.47594238 -11.41037598 204.11741211 -12.45751953 204.77832031 C-15.41345932 206.5142448 -18.30995943 207.40658033 -21.60449219 208.33203125 C-28.1216566 210.5075796 -33.33935485 212.86948287 -37.2019043 218.76025391 C-41.3755136 231.50300603 -39.56118184 246.73182141 -39.10742188 259.91412354 C-38.95216234 265.08200442 -38.91728469 270.25060384 -38.87182617 275.42041016 C-38.76533543 285.53793242 -38.52626572 295.64753338 -38.2019043 305.76025391 C-42.30422247 304.43096577 -45.98094249 302.95089123 -49.7722168 300.88916016 C-50.82376953 300.3202002 -51.87532227 299.75124023 -52.95874023 299.16503906 C-54.07023437 298.55708496 -55.18172852 297.94913086 -56.3269043 297.32275391 C-57.47964844 296.69675293 -58.63239258 296.07075195 -59.82006836 295.42578125 C-63.28423973 293.54375167 -66.74322903 291.65236462 -70.2019043 289.76025391 C-71.17289063 289.23061035 -72.14387695 288.7009668 -73.14428711 288.15527344 C-75.74829995 286.73460551 -78.35069611 285.31104984 -80.9519043 283.88525391 C-81.68683105 283.48250244 -82.42175781 283.07975098 -83.17895508 282.66479492 C-87.98030651 280.01951198 -92.74596903 277.3145215 -97.50366211 274.59179688 C-98.14961334 274.22239487 -98.79556458 273.85299286 -99.46109009 273.47239685 C-101.04148721 272.568569 -102.62171322 271.66444194 -104.2019043 270.76025391 C-104.50559936 243.2574147 -104.73483636 215.75482676 -104.87546253 188.2506485 C-104.94249408 175.47984262 -105.03387648 162.71007856 -105.18261719 149.93994141 C-105.31220033 138.80927003 -105.39606241 127.67935307 -105.42505473 116.54794836 C-105.44200311 110.65355888 -105.48181794 104.76132755 -105.57639503 98.86763 C-105.66472259 93.31835799 -105.69184158 87.77212958 -105.67230415 82.22222137 C-105.67587724 80.18714085 -105.70169759 78.15195739 -105.75157547 76.11748505 C-106.10039562 61.15392325 -106.10039562 61.15392325 -102.95019889 57.18206978 C-99.45147905 54.14204839 -95.48246139 52.49052327 -91.2019043 50.76025391 C-89.22263291 49.66883115 -87.2550673 48.5555157 -85.30737305 47.40869141 C-83.33590753 46.31539565 -81.36321575 45.22430867 -79.3894043 44.13525391 C-70.01282242 38.92330644 -60.71447636 33.59549171 -51.46142578 28.16772461 C-42.34445223 22.82591702 -33.17402516 17.58088665 -23.99169922 12.35253906 C-22.34004761 11.411604 -22.34004761 11.411604 -20.6550293 10.45166016 C-19.58575195 9.84596191 -18.51647461 9.24026367 -17.41479492 8.61621094 C-15.20760667 7.34120751 -13.01945733 6.03284587 -10.84838867 4.69726562 C-9.25220703 3.72104248 -9.25220703 3.72104248 -7.6237793 2.72509766 C-6.67599609 2.13204834 -5.72821289 1.53899902 -4.75170898 0.92797852 C-2.2019043 -0.23974609 -2.2019043 -0.23974609 0 0 Z " fill="#ECAB4A" transform="translate(262.201904296875,90.23974609375)"/>
<path d="M0 0 C2.43820807 1.03272226 4.62481202 2.31646004 6.87817383 3.70654297 C7.73540039 4.23119141 8.59262695 4.75583984 9.47583008 5.29638672 C11.27278452 6.42735805 13.04903267 7.5912822 14.81567383 8.76904297 C14.08348633 9.11193359 13.35129883 9.45482422 12.59692383 9.80810547 C3.55187767 14.17987778 -5.08590693 19.13471419 -13.7409668 24.23046875 C-20.68264357 28.31627015 -27.66096171 32.32543289 -34.68432617 36.26904297 C-43.59251319 41.27559405 -52.4369507 46.38277026 -61.23901367 51.57373047 C-70.14001161 56.80290849 -79.14864655 61.74922095 -88.18432617 66.76904297 C-88.51432617 136.72904297 -88.84432617 206.68904297 -89.18432617 278.76904297 C-94.13432617 276.12904297 -99.08432617 273.48904297 -104.18432617 270.76904297 C-104.4852723 243.26614734 -104.71725807 215.76364828 -104.85788441 188.25943756 C-104.92491595 175.48863168 -105.01629836 162.71886762 -105.16503906 149.94873047 C-105.29462221 138.81805909 -105.37848428 127.68814213 -105.4074766 116.55673742 C-105.42442498 110.66234794 -105.46423981 104.77011661 -105.55881691 98.87641907 C-105.64714446 93.32714705 -105.67426345 87.78091864 -105.65472603 82.23101044 C-105.65829912 80.19592991 -105.68411946 78.16074645 -105.73399734 76.12627411 C-106.08281749 61.16271231 -106.08281749 61.16271231 -102.93262076 57.19085884 C-99.43390093 54.15083746 -95.46488326 52.49931234 -91.18432617 50.76904297 C-89.20505478 49.67762021 -87.23748917 48.56430477 -85.28979492 47.41748047 C-83.3183294 46.32418471 -81.34563762 45.23309773 -79.37182617 44.14404297 C-69.99524429 38.9320955 -60.69689823 33.60428077 -51.44384766 28.17651367 C-42.3268741 22.83470608 -33.15644703 17.58967571 -23.97412109 12.36132812 C-22.32246948 11.42039307 -22.32246948 11.42039307 -20.63745117 10.46044922 C-19.56817383 9.85475098 -18.49889648 9.24905273 -17.3972168 8.625 C-15.19002855 7.34999657 -13.00187921 6.04163493 -10.83081055 4.70605469 C-9.23462891 3.72983154 -9.23462891 3.72983154 -7.60620117 2.73388672 C-6.65841797 2.1408374 -5.71063477 1.54778809 -4.73413086 0.93676758 C-2.18432617 -0.23095703 -2.18432617 -0.23095703 0 0 Z " fill="#BD8229" transform="translate(262.184326171875,90.23095703125)"/>
<path d="M0 0 C1.16208984 0.75216797 1.16208984 0.75216797 2.34765625 1.51953125 C3.37503906 2.01710937 4.40242188 2.5146875 5.4609375 3.02734375 C6.51667969 3.56101563 7.57242188 4.0946875 8.66015625 4.64453125 C10.26310547 5.45277344 10.26310547 5.45277344 11.8984375 6.27734375 C13.11080078 6.89222656 13.11080078 6.89222656 14.34765625 7.51953125 C11.78678859 9.49041604 9.20884961 11.26948276 6.42578125 12.91015625 C5.65886963 13.36535645 4.89195801 13.82055664 4.10180664 14.28955078 C3.27543701 14.77794434 2.44906738 15.26633789 1.59765625 15.76953125 C-7.59669257 21.23310117 -16.66842887 26.87771366 -25.69238281 32.61816406 C-27.14016113 33.53227051 -27.14016113 33.53227051 -28.6171875 34.46484375 C-29.46917725 35.00641113 -30.32116699 35.54797852 -31.19897461 36.10595703 C-33.62509596 37.50383171 -36.02971746 38.54853544 -38.65234375 39.51953125 C-39.67191658 33.8352461 -40.5385697 28.10418941 -38.65234375 22.51953125 C-34.97658007 17.95578738 -29.31457958 15.52823127 -24.19873047 12.90234375 C-21.5100716 11.44227051 -19.00469373 9.82395739 -16.46875 8.11328125 C-15.6228833 7.54585205 -14.7770166 6.97842285 -13.90551758 6.39379883 C-12.26139443 5.28590389 -10.62173774 4.171346 -8.98706055 3.04956055 C-3.35913244 -0.60850264 -3.35913244 -0.60850264 0 0 Z " fill="#BB8129" transform="translate(262.65234375,209.48046875)"/>
</svg>
